<svg xmlns="http://www.w3.org/2000/svg" width="65" height="64" viewBox="0 0 65 64">
    <defs>
        <linearGradient id="a" x1="50.001%" x2="50.001%" y1="99.999%" y2=".003%">
            <stop offset="0%" stop-color="#DB7D39"/>
            <stop offset="100%" stop-color="#F59A58"/>
        </linearGradient>
        <linearGradient id="b" x1="55.882%" x2="44.119%" y1="95.477%" y2="4.519%">
            <stop offset="0%" stop-color="#C7AB63"/>
            <stop offset="100%" stop-color="#FFE9B3"/>
        </linearGradient>
        <linearGradient id="c" x1="49.994%" x2="49.994%" y1="99.996%" y2=".006%">
            <stop offset="0%" stop-color="#FFE9B3"/>
            <stop offset="43.922%" stop-color="#FFE9B3"/>
            <stop offset="100%" stop-color="#ECCD81"/>
        </linearGradient>
        <linearGradient id="d" x1="50%" x2="50%" y1="99.996%" y2=".006%">
            <stop offset="0%" stop-color="#FFE9B3"/>
            <stop offset="43.922%" stop-color="#FFE9B3"/>
            <stop offset="100%" stop-color="#ECCD81"/>
        </linearGradient>
        <linearGradient id="e" x1="31.472%" x2="68.528%" y1="2.001%" y2="97.999%">
            <stop offset="0%" stop-color="#C7AB63"/>
            <stop offset="87.843%" stop-color="#ECCD81"/>
            <stop offset="100%" stop-color="#ECCD81"/>
        </linearGradient>
        <linearGradient id="f" x1="50.007%" x2="50.007%" y1=".026%" y2="100.014%">
            <stop offset="0%" stop-color="#3B3426"/>
            <stop offset="100%" stop-color="#615948"/>
        </linearGradient>
        <linearGradient id="g" x1="71.947%" x2="28.053%" y1="2.184%" y2="97.796%">
            <stop offset="0%" stop-color="#C7AB63"/>
            <stop offset="87.843%" stop-color="#ECCD81"/>
            <stop offset="100%" stop-color="#ECCD81"/>
        </linearGradient>
        <linearGradient id="h" x1="50%" x2="50%" y1="0%" y2="100%">
            <stop offset="0%" stop-color="#3B3426"/>
            <stop offset="100%" stop-color="#615948"/>
        </linearGradient>
        <linearGradient id="i" x1="50%" x2="50%" y1="0%" y2="100%">
            <stop offset="0%" stop-color="#C7AB63"/>
            <stop offset="3.137%" stop-color="#C7AB63"/>
            <stop offset="52.941%" stop-color="#ECCD81"/>
            <stop offset="100%" stop-color="#FFE9B3"/>
        </linearGradient>
        <linearGradient id="j" x1="40.177%" x2="59.822%" y1="109.26%" y2="-9.247%">
            <stop offset="0%" stop-color="#C93"/>
            <stop offset="10.98%" stop-color="#FFF98F"/>
            <stop offset="25.098%" stop-color="#FFFFFC"/>
            <stop offset="47.843%" stop-color="#FFF982"/>
            <stop offset="81.177%" stop-color="#643200"/>
            <stop offset="100%" stop-color="#C93"/>
        </linearGradient>
        <linearGradient id="k" x1="-3.892%" x2="103.9%" y1="34.107%" y2="65.9%">
            <stop offset="0%" stop-color="#FFFDFC"/>
            <stop offset="100%" stop-color="#F2E9E4"/>
        </linearGradient>
        <linearGradient id="l" x1="-1.289%" x2="101.289%" y1="30.616%" y2="69.392%">
            <stop offset="0%" stop-color="#F5E2E2"/>
            <stop offset="100%" stop-color="#C49D9D"/>
        </linearGradient>
        <linearGradient id="m" x1="4.936%" x2="95.032%" y1="28.962%" y2="71.041%">
            <stop offset="0%" stop-color="#E4BBB9"/>
            <stop offset="100%" stop-color="#B88383"/>
        </linearGradient>
        <linearGradient id="n" x1="103.884%" x2="-3.9%" y1="34.128%" y2="65.879%">
            <stop offset="0%" stop-color="#FFFDFC"/>
            <stop offset="100%" stop-color="#F2E9E4"/>
        </linearGradient>
        <linearGradient id="o" x1="101.286%" x2="-1.292%" y1="30.6%" y2="69.408%">
            <stop offset="0%" stop-color="#F5E2E2"/>
            <stop offset="100%" stop-color="#C49D9D"/>
        </linearGradient>
        <linearGradient id="p" x1="95.055%" x2="4.962%" y1="28.945%" y2="71.058%">
            <stop offset="0%" stop-color="#E4BBB9"/>
            <stop offset="100%" stop-color="#B88383"/>
        </linearGradient>
        <linearGradient id="q" x1="43.381%" x2="56.631%" y1="98.882%" y2="1.102%">
            <stop offset="0%" stop-color="#683501"/>
            <stop offset="100%" stop-color="#B08227"/>
        </linearGradient>
        <linearGradient id="r" x1="72.951%" x2="27.072%" y1="95.798%" y2="4.269%">
            <stop offset="0%" stop-color="#683501"/>
            <stop offset="100%" stop-color="#B08227"/>
        </linearGradient>
        <linearGradient id="s" x1="13.893%" x2="86.1%" y1="14.167%" y2="85.836%">
            <stop offset="0%" stop-color="#643300"/>
            <stop offset="32.157%" stop-color="#B5872A"/>
            <stop offset="100%" stop-color="#643300"/>
        </linearGradient>
        <linearGradient id="t" x1="56.681%" x2="43.451%" y1="98.882%" y2="1.102%">
            <stop offset="0%" stop-color="#683501"/>
            <stop offset="100%" stop-color="#B08227"/>
        </linearGradient>
        <linearGradient id="u" x1="27.122%" x2="72.941%" y1="95.798%" y2="4.269%">
            <stop offset="0%" stop-color="#683501"/>
            <stop offset="100%" stop-color="#B08227"/>
        </linearGradient>
        <linearGradient id="v" x1="86.097%" x2="13.888%" y1="14.167%" y2="85.836%">
            <stop offset="0%" stop-color="#643300"/>
            <stop offset="32.157%" stop-color="#B5872A"/>
            <stop offset="100%" stop-color="#643300"/>
        </linearGradient>
        <linearGradient id="w" x1="50%" x2="50%" y1="99.997%" y2="-.002%">
            <stop offset="0%" stop-color="#C7AB63"/>
            <stop offset="3.137%" stop-color="#C7AB63"/>
            <stop offset="32.941%" stop-color="#ECCD81"/>
            <stop offset="100%" stop-color="#FFE9B3"/>
        </linearGradient>
        <linearGradient id="x" x1="50%" x2="50%" y1=".009%" y2="100.007%">
            <stop offset="0%" stop-color="#FFFDFC"/>
            <stop offset="54.118%" stop-color="#FFFDFC"/>
            <stop offset="100%" stop-color="#F2E9E4"/>
        </linearGradient>
        <linearGradient id="y" x1="62.101%" x2="37.893%" y1="97.407%" y2="2.583%">
            <stop offset="0%" stop-color="#1C2880"/>
            <stop offset="100%"/>
        </linearGradient>
        <linearGradient id="z" x1="-.001%" y1="49.996%" y2="49.996%">
            <stop offset="0%" stop-color="#1C2880"/>
            <stop offset="50.196%" stop-color="#7787FF"/>
            <stop offset="100%" stop-color="#1C2880"/>
        </linearGradient>
        <linearGradient id="A" x1="37.762%" x2="62.23%" y1="1.394%" y2="98.603%">
            <stop offset="0%"/>
            <stop offset="45%"/>
            <stop offset="100%" stop-color="#111B66"/>
        </linearGradient>
        <linearGradient id="B" x1="37.894%" x2="62.106%" y1="97.407%" y2="2.593%">
            <stop offset="0%" stop-color="#1C2880"/>
            <stop offset="100%"/>
        </linearGradient>
        <linearGradient id="C" x1="-.003%" x2="99.998%" y1="49.996%" y2="49.996%">
            <stop offset="0%" stop-color="#1C2880"/>
            <stop offset="50.196%" stop-color="#7787FF"/>
            <stop offset="100%" stop-color="#1C2880"/>
        </linearGradient>
        <linearGradient id="D" x1="62.23%" x2="37.767%" y1="1.394%" y2="98.603%">
            <stop offset="0%"/>
            <stop offset="45%"/>
            <stop offset="100%" stop-color="#111B66"/>
        </linearGradient>
        <linearGradient id="E" x1="49.989%" x2="49.989%" y1="-.018%" y2="99.929%">
            <stop offset="0%" stop-color="#FCC"/>
            <stop offset="100%" stop-color="#DB9092"/>
        </linearGradient>
        <linearGradient id="F" x1="50%" x2="50%" y1="100.003%" y2="-.006%">
            <stop offset="0%" stop-color="#DB7D39"/>
            <stop offset="61.176%" stop-color="#F59A58"/>
            <stop offset="100%" stop-color="#F59A58"/>
        </linearGradient>
    </defs>
    <g fill="none" fill-rule="evenodd">
        <path fill="#FFF" fill-rule="nonzero" d="M32 64c18.5 0 35.5-16.033 32-33.081C60.5 13.87 49.673 0 32 0c-8.213 0-14.834 3.903-20.5 8.989C4.973 14.847 0 22.539 0 32c0 17.673 13.5 32 32 32z"/>
        <path fill="url(#a)" stroke="#000" stroke-linecap="round" stroke-linejoin="round" stroke-width=".922" d="M3.438 0c.395 2.929-.249 5.3-3.124 4.665C.25 6.163 2.294 7.385 3.81 6.58 2.254 8.618 3.453 10.83 0 10.824c.69 2.58 4.279 3.41 6.373 1.835-1.276 1.045-.305 2.652-2.945 2.576 2.44 3.154 7.272.762 10.522.917 2.899.025 7.857 1.076 9.26-.847C27.308 9.7 22.902 5.87 22.204.115 16.084 0 9.56.115 3.438 0z" transform="translate(16 29)"/>
        <path fill="#000" fill-opacity=".2" d="M20.083 30.7c.61.641-.068 5.432-3.19 4.346.68.493 1.532 1.132 2.834.57.029-.01.124.115.153.102.434-.472 1.31-1.225 2.408-1.816-2.12 3.248.213 8.096-4.937 7.8 1.678 1.171 3.684.828 4.715.203.13-.077.27-.029.363-.113.425-.302 1.477-1.314 1.805-2.02.508.212.33 3.989-1.953 6.04 1.723.364 4.824-.6 7.18-.639 3.05-.05 8.79-2.23 8.037-4.772-.39-1.315-.892-2.462-1.15-3.92-.73-4.12 2.025-6.087 2.025-6.087l-18.29.306z"/>
        <path fill="url(#b)" d="M.039 7.351c-.2-1.204.403-1.96 1.577-2.429.752-.301 1.789-.898 2.86.183 1.995 1.646 4.731 2.672 6.6-.867.75-1.423 2.353-4 5.234-4.22 4.165-.32 5.671 3.969 3.653 5.87-.924-2.575-3.99-2.082-4.708.702-.706 2.74-2.584 5.36-6.516 6.08-2.318.424-5.02-.104-6.8-1.598-1.092-.918-1.665-2.317-1.9-3.72z" transform="translate(28 34)"/>
        <path fill="#FFFDFC" d="M47.394 34.843c1.676 1.287 1.96 3.734.569 5.045-.483-1.34-1.544-1.848-2.55-1.637-.093-.436-.154-.87.075-1.122.704-.778 1.283-.039 1.109-1.36-.072-.548.329-.87.797-.926z"/>
        <path fill="#000" fill-opacity=".2" d="M28.039 41.351a2.21 2.21 0 0 1 .04-1c.219.012.4-.015.483-.135l.42-.241c.56-.029 1.502 1.667 2.064 1.64 1.616 4.51 8.442 5.635 11.407 1.051-1.017 1.896-2.802 3.47-5.714 4.004-2.318.424-5.02-.104-6.8-1.598-1.092-.918-1.665-2.317-1.9-3.72zM47.963 39.888c-.924-2.575-3.99-2.082-4.708.702-.1.391-.226.78-.377 1.162-.566-5.702 5.456-5.09 5.085-1.864z"/>
        <path stroke="#000" stroke-linecap="round" stroke-linejoin="round" stroke-width=".922" d="M28.039 41.351c-.2-1.204.403-1.96 1.577-2.429.752-.301 1.789-.898 2.86.183 1.995 1.646 4.731 2.672 6.6-.867.75-1.423 2.353-4 5.234-4.22 4.165-.32 5.671 3.969 3.653 5.87-.924-2.575-3.99-2.082-4.708.702-.706 2.74-2.584 5.36-6.516 6.08-2.318.424-5.02-.104-6.8-1.598-1.092-.918-1.665-2.317-1.9-3.72z"/>
        <path fill="#FFE9B3" d="M36.103 48.062c-.23.444-.75.591-1.134.22-.131.145-.513.3-.975.135-.76-.272-.942-.955-1.579-1.471-.41-.33-.23-.989-.211-1.384.675.704 1.452-.342 1.996-.514.693-.212 1.367.327.99.855.37.197.964.491 1.248.852.314.398.225 1.307-.335 1.307z"/>
        <path fill="#000" fill-opacity=".2" d="M36.103 48.062c-.23.444-.75.591-1.134.22-.131.145-.513.3-.975.135-.76-.272-.96-1.02-1.617-1.504-.29-.214-.25-.802-.192-1.188a.933.933 0 0 1 .104-.079c-.111 1.105 2.68 3.167 2.658 1.782.397.71 1.105.386 1.01-.31.236.277.504-.03.266-.568.338.128.399.597.388.914-.032.317-.197.598-.508.598z"/>
        <path d="M35.264 45.9c.516.478.89.494 1.174.855.314.398.225 1.307-.335 1.307-.23.444-.75.591-1.134.22-.131.145-.513.3-.975.135-.76-.272-.965-1.013-1.617-1.504-.29-.218-.256-.686-.203-1.086"/>
        <path fill="#000" d="M35.353 45.78c-.057-.055-.144-.046-.194.02a.167.167 0 0 0 .016.217c.267.249.494.377.692.49.185.103.341.19.467.35.15.19.18.53.102.766a.426.426 0 0 1-.178.245c.013-.558-.213-1.107-.745-1.09.345.197.497.524.458 1.226a.628.628 0 0 1-.408.322.536.536 0 0 1-.423-.094c.07-.451.019-1.002-.536-1.114.258.203.302.683.263 1.058a.639.639 0 0 1-.35.15c-.14.018-.304.008-.482-.056-.41-.147-.653-.454-.907-.777-.193-.245-.392-.496-.674-.709-.105-.079-.152-.211-.168-.365-.02-.176-.002-.379.024-.567.028-.203-.241-.247-.267-.046-.03.211-.058.44-.034.65.026.237.106.448.291.585.253.19.438.427.618.657.28.354.547.694 1.033.868.22.079.427.091.6.066a.97.97 0 0 0 .418-.155.778.778 0 0 0 .646.153.897.897 0 0 0 .565-.418c.253-.031.43-.222.518-.481.113-.344.063-.802-.156-1.08-.16-.203-.34-.304-.549-.422a3.019 3.019 0 0 1-.64-.45z"/>
        <path fill="#FFE9B3" d="M23.655 48.062c.23.444.749.591 1.133.22.132.145.514.3.975.135.76-.272.943-.955 1.579-1.471.41-.33.23-.989.211-1.384-.675.704-1.452-.342-1.995-.514-.694-.212-1.367.327-.993.855-.367.197-.962.491-1.246.852-.313.398-.224 1.307.336 1.307z"/>
        <path fill="#000" fill-opacity=".2" d="M23.655 48.062c.23.444.749.591 1.133.22.132.145.514.3.975.135.76-.272.961-1.02 1.616-1.504.291-.214.252-.802.19-1.188a.771.771 0 0 0-.101-.079c.111 1.105-2.68 3.167-2.66 1.782-.395.71-1.103.386-1.009-.31-.235.277-.502-.03-.265-.568-.337.128-.399.597-.387.914.031.317.196.598.508.598z"/>
        <path d="M24.491 45.9c-.514.478-.89.494-1.172.855-.313.398-.224 1.307.336 1.307.23.444.749.591 1.133.22.132.145.514.3.975.135.76-.272.965-1.013 1.616-1.504.29-.218.258-.686.204-1.086"/>
        <path fill="#000" d="M24.402 45.78a.13.13 0 0 1 .197.02.167.167 0 0 1-.019.217c-.265.249-.493.377-.692.49-.183.103-.339.19-.465.35-.15.19-.18.53-.102.766.033.102.09.195.178.245-.013-.558.213-1.107.745-1.09-.344.197-.497.524-.458 1.226.091.164.236.284.408.322a.536.536 0 0 0 .423-.094c-.072-.451-.02-1.002.536-1.114-.258.203-.302.683-.263 1.058.057.06.182.125.35.15.14.018.303.008.48-.056.413-.147.656-.454.91-.777.193-.245.39-.496.673-.709.104-.079.152-.211.169-.365.02-.176 0-.379-.026-.567-.026-.203.243-.247.269-.046.03.211.057.44.033.65-.026.237-.108.448-.291.585-.252.19-.438.427-.618.657-.28.354-.549.694-1.033.868-.22.079-.426.091-.599.066a.97.97 0 0 1-.42-.155.782.782 0 0 1-.646.153.893.893 0 0 1-.564-.418c-.252-.031-.43-.222-.518-.481-.113-.344-.063-.802.156-1.08.16-.203.34-.304.55-.422.185-.104.396-.224.637-.45z"/>
        <path fill="url(#c)" d="M0 3.892c.778 0 2.503.335 2.4 1.419.392.406 1.158.64 1.63.272.566-.444 1.293-.424 1.308-.022.672-.484 1.232-1.281 1.236-2.095.003-1.572-1.21-2.921-1.761-3.36C3.683 1.678 2.14 2.426 0 2.534v1.358z" transform="translate(29 40)"/>
        <path fill="#FFFDFC" d="M30.897 44.391c.326.218.542.534.504.938.39.406 1.157.64 1.628.273.567-.445 1.294-.425 1.309-.022.672-.485 1.232-1.3 1.236-2.114.001-.702-.24-1.358-.555-1.91.536 1.71-1.803 3.43-4.122 2.835z"/>
        <path fill="#000" fill-rule="nonzero" d="M31.377 45.711c.113.01.133-.12.144-.281a1.3 1.3 0 0 0-.175-.77c-.181-.313-.449-.541-.836-.691-.378-.146-.868-.218-1.51-.218v.275c.609 0 1.069.065 1.412.197a1.316 1.316 0 0 1 .703.581c.122.213.157.447.137.607-.017.125-.018.163-.02.192-.007.088.08.103.145.108zm2.356-5.495a5.29 5.29 0 0 1 1.255 1.57c.262.497.451 1.073.45 1.68a2.104 2.104 0 0 1-.397 1.194c-.28.408-.825.88-1.2 1.212.557-.11 1.296-.872 1.424-1.057.267-.385.443-.837.443-1.349.004-.658-.2-1.276-.478-1.808-.412-.786-.994-1.39-1.334-1.658l-.083.106-.08.11z"/>
        <path fill="#000" fill-opacity=".2" d="M35.38 44.315c.12-.271.192-.558.194-.849.003-1.417-.984-2.652-1.58-3.203l-.285 1.33c.047.087.094.173.143.26.704-.754 1.722 1.608 1.527 2.462z"/>
        <path fill="url(#d)" d="M6.71 3.892c-.778 0-2.503.335-2.4 1.419-.392.406-1.158.64-1.63.272-.566-.444-1.293-.424-1.308-.022C.7 5.077.138 4.28.137 3.466.133 1.894 1.347.545 1.897.106c1.13 1.572 2.672 2.32 4.813 2.428v1.358z" transform="translate(23 40)"/>
        <path fill="#FFFDFC" d="M27.555 44.607a.916.916 0 0 0-.246.722c-.39.406-1.157.64-1.628.273-.567-.445-1.294-.425-1.309-.022-.908-.655-1.464-1.845-1.103-2.958.702 2.182 3.708 2.43 4.286 1.985z"/>
        <path fill="#000" fill-rule="nonzero" d="M27.333 45.711c-.113.01-.135-.12-.146-.281a1.314 1.314 0 0 1 .171-.763l.006-.007c.181-.313.449-.541.836-.691.378-.146.868-.218 1.51-.218v.275c-.609 0-1.069.065-1.412.197-.327.126-.55.316-.7.574-.002.004-.002.006-.004.007a1.03 1.03 0 0 0-.136.607c.017.125.018.163.02.192.007.088-.08.103-.145.108zm-2.355-5.495c-.32.256-.867.824-1.258 1.57-.26.497-.449 1.073-.447 1.68.002.448.158.849.396 1.194.28.408.825.88 1.2 1.212-.557-.11-1.296-.872-1.425-1.057A2.374 2.374 0 0 1 23 43.466c-.001-.658.2-1.276.48-1.808.41-.786.994-1.39 1.334-1.658l.084.106.08.11z"/>
        <path fill="#000" fill-opacity=".2" d="M23.331 44.315a2.102 2.102 0 0 1-.194-.849c-.004-1.417.981-2.652 1.579-3.203l.285 1.33-.143.26c-.705-.754-1.721 1.608-1.527 2.462z"/>
        <g>
            <path fill="url(#e)" d="M2.568.17c1.83.694 3.307 2.821 4.103 4.36.525 1.015-1.156 2.548-1.656 2.042-1.14-1.156-2.198-1.248-3.07-1.093C.596 5.72-.515 1.61.253.352 1.02.31 1.95.272 2.568.17z" transform="translate(32 34)"/>
            <path fill="url(#f)" fill-rule="nonzero" d="M2.987.334c.621.305 1.203.758 1.723 1.281-.418.764-1.084 1.284-1.64.917-.572-.377-.51-1.406-.083-2.198zm2.032 1.712c.454.53.852 1.104 1.185 1.654-.5.484-1.129.701-1.514.31-.438-.443-.162-1.343.329-1.964z" transform="translate(32 34)"/>
            <path fill="#000" fill-opacity=".2" d="M36.897 40.456c-1.094-1.044-2.109-1.126-2.952-.977-.31.056-.609-.12-.874-.437-.591-.951 1.368-2.212 1.888-1.322.475.812 1.334 1.706 2.02 2.268-.004.188.029.39-.082.468z"/>
            <path stroke="#000" stroke-linecap="round" stroke-linejoin="round" stroke-width=".922" d="M35.016 39.455c.618.094 1.292.402 2 1.117.499.506 2.093-1.025 1.57-2.04-.797-1.537-2.187-3.668-4.018-4.363a75.19 75.19 0 0 0-.447-.169"/>
        </g>
        <g>
            <path fill="url(#g)" d="M4.205.17C2.375.863.898 2.99.102 4.53c-.526 1.015 1.156 2.548 1.656 2.042 1.14-1.156 2.198-1.248 3.07-1.093C6.177 5.72 7.286 1.61 6.521.352 5.753.31 4.823.272 4.205.17z" transform="translate(21 34)"/>
            <path fill="url(#h)" fill-rule="nonzero" d="M1.754 2.046C1.3 2.576.902 3.15.57 3.7c.5.484 1.129.701 1.514.31.438-.443.162-1.343-.329-1.964zM3.787.334c-.624.305-1.204.758-1.726 1.281.42.764 1.086 1.284 1.642.917.573-.377.51-1.406.084-2.198z" transform="translate(21 34)"/>
            <path fill="#000" fill-opacity=".2" d="M22.876 40.456c1.094-1.044 2.109-1.126 2.952-.977.311.056.61-.12.874-.437.591-.951-1.368-2.212-1.888-1.322-.475.812-1.334 1.706-2.02 2.268.004.188-.029.39.082.468z"/>
            <path stroke="#000" stroke-linecap="round" stroke-linejoin="round" stroke-width=".922" d="M24.757 39.455c-.618.094-1.292.402-2 1.117-.5.506-2.095-1.025-1.57-2.04.796-1.537 2.187-3.668 4.018-4.363.163-.062.31-.119.447-.169"/>
        </g>
        <g>
            <path fill="#FFFDFC" d="M36.347 40.197c-.058 1.16.956 1.828 1.564 1.322.478.685 1.67.178 1.527-.505.384-.924-.502-1.789-1.197-2.287-.374-.11-.687-.428-.872.076-.215.588-.296.481-.76.687-.309.136-.02.607-.262.707z"/>
            <path fill="#000" fill-opacity=".2" d="M36.347 40.197c-.058 1.16.956 1.828 1.564 1.322.644.74 1.72.042 1.422-.505-.123.512-.982.704-1.24-.204-.214.711-.986.409-1.16.045-.181-.373-.085-.798-.48-1.069-.004.16.03.334-.085.4v.003c-.004 0-.005.001-.01.003l-.001.002c-.004.001-.006.003-.01.003z"/>
            <path fill="#000" d="M36.227 39.916c-.15-.1-.318.109-.168.209.054.036.107.074.158.112-.007.521.187.95.465 1.229.104.105.222.188.345.248.276.131.59.142.857-.014.395.411 1.101.33 1.48-.058.163-.168.256-.382.22-.616.157-.404.087-.8-.098-1.162-.251-.487-.761-.86-1.11-1.215-.065-.064-.342-.494-.407-.595-.11-.137-.336.017-.226.153.068.083.141.207.211.321.012.02.153.264.234.325.38.283.814.676 1.04 1.12.073.14.124.285.146.433-.1-.12-.294-.262-.519-.24.153.116.238.247.323.435.125.273.213.627-.023.868-.268.275-.778.354-1.063.057.22-.283.223-.8-.15-.946.103.176.09.646-.105.824a.604.604 0 0 1-.68.08.964.964 0 0 1-.266-.193c-.243-.241-.411-.63-.39-1.102a.12.12 0 0 0-.044-.104 3.055 3.055 0 0 0-.23-.17z"/>
        </g>
        <g>
            <path fill="#FFFDFC" d="M23.323 40.197c.059 1.16-.955 1.828-1.563 1.322-.478.685-1.67.178-1.528-.505-.383-.924.503-1.789 1.197-2.287.374-.11.688-.428.873.076.215.588.296.481.759.687.31.136.02.607.262.707z"/>
            <path fill="#000" fill-opacity=".2" d="M23.323 40.197c.059 1.16-.955 1.828-1.563 1.322-.644.74-1.72.042-1.424-.505.125.512.984.704 1.243-.204.213.711.985.409 1.159.045.18-.373.085-.798.48-1.069.003.16-.03.334.085.4v.003l.009.003v.002h.002a.015.015 0 0 0 .01.003z"/>
            <path fill="#000" d="M23.444 39.916c.15-.1.317.109.166.209a4.949 4.949 0 0 0-.156.112c.007.521-.19.95-.465 1.229a1.31 1.31 0 0 1-.345.248c-.276.131-.59.142-.858-.014-.394.411-1.1.33-1.48-.058-.162-.168-.255-.382-.22-.616-.156-.404-.086-.8.099-1.162.251-.487.761-.86 1.11-1.215.065-.064.34-.494.404-.595.112-.137.338.017.229.153a2.878 2.878 0 0 0-.212.321c-.01.02-.153.264-.234.325-.38.283-.814.676-1.04 1.12-.072.14-.125.285-.146.433.1-.12.295-.262.52-.24-.153.116-.238.247-.325.435-.123.273-.213.627.024.868.269.275.778.354 1.062.057-.217-.283-.221-.8.153-.946-.104.176-.091.646.103.824.163.148.42.205.678.08a.944.944 0 0 0 .268-.193c.242-.241.412-.63.391-1.102a.12.12 0 0 1 .044-.104c.07-.059.153-.117.23-.17z"/>
        </g>
        <g>
            <path fill="url(#i)" d="M5.84 8.95C2.918 8.95.645 8.465.19 5.693-.09 4.005.927 1.886 2.06 0c1.197.133 2.434.205 3.78.236A43.25 43.25 0 0 0 9.622 0c1.133 1.886 2.147 4.005 1.871 5.693-.457 2.772-2.728 3.257-5.651 3.257z" transform="translate(24 35)"/>
            <path fill="#000" fill-opacity=".2" d="M27.837 43.837c-1.918-.26-3.303-1.048-3.648-3.144-.142-.864.055-1.84.432-2.841-.42 3.33.76 5.422 3.216 5.985z"/>
            <path fill="#000" d="M24.799 42.3c-.472-.534-.657-1.067-.75-1.588-.111-.628-.045-1.662.348-2.198-.148.701-.176 1.507-.068 2.161.094.568.196.952.47 1.625z"/>
            <path fill="#000" fill-opacity=".2" d="M31.844 43.837c1.919-.26 3.303-1.048 3.648-3.144.142-.864-.054-1.84-.432-2.841.421 3.33-.76 5.422-3.216 5.985z"/>
            <path fill="#000" d="M34.882 42.3c.473-.534.656-1.067.75-1.588.112-.628.045-1.662-.347-2.198.147.701.175 1.507.068 2.161-.095.568-.197.952-.47 1.625zM27.554 36.671c.026.152.007.535.517.671.197.054.506.004.638-.153.078-.09.204-.026.22.06a.815.815 0 0 0 .504.61c.13.054.272.081.411.078a.828.828 0 0 0 .387-.109c.208-.12.365-.35.391-.709a.123.123 0 0 1 .133-.115c.05.004.09.035.107.08.093.192.36.277.563.267.376-.019.62-.248.734-.595.046.485-.247.82-.723.844a.935.935 0 0 1-.612-.184 1.01 1.01 0 0 1-.972.769 1.246 1.246 0 0 1-.516-.097 1.08 1.08 0 0 1-.6-.604.993.993 0 0 1-.729.1c-.502-.135-.542-.655-.453-.913z"/>
        </g>
        <g fill-rule="nonzero">
            <path fill="#000" stroke="#000" stroke-linecap="round" stroke-linejoin="round" stroke-width=".922" d="M36.464 33c.054.048.11.1.116.167.004.095-.058.216-.144.252.01.008.017.016.025.026.06.07.117.202.154.288.158-.153.388-.48.353-.733h-.504zm-.522.423c.067.167.13.338.19.512.05.064.157.14.153.231-.002.095-.075.204-.162.23.008.008.015.018.023.028.052.075.097.206.126.294.18-.137.455-.455.409-.71-.043-.14-.145-.404-.234-.51-.096-.101-.415-.24-.505-.075zm-.31.92c.053.172.101.343.146.516.044.069.143.155.133.244-.012.09-.095.19-.183.203a.117.117 0 0 1 .02.03c.047.08.08.212.101.303.19-.113.49-.39.467-.647-.033-.14-.112-.407-.19-.52-.086-.104-.39-.277-.495-.128zm-.385.855c.039.17.072.344.1.517.04.07.128.168.11.254-.019.087-.11.171-.196.173l.017.033c.037.082.058.215.072.306.194-.085.518-.32.518-.572-.019-.141-.075-.41-.142-.528-.076-.11-.361-.316-.479-.183zm-.451.78c.02.146.035.291.046.438v.085c.03.083.104.19.07.28-.033.09-.141.177-.238.175.006.01.01.022.014.035.023.092.02.24.015.334.238-.07.53-.282.631-.524a.18.18 0 0 0 .01-.054c-.006-.141-.037-.407-.093-.532-.065-.119-.332-.349-.455-.238zm-.573.767a7.603 7.603 0 0 1-.046.552c.02.084.079.2.035.284-.043.082-.16.149-.251.13a.243.243 0 0 1 .007.037c.012.095-.01.236-.027.328.232-.038.627-.201.703-.465.02-.147.044-.437.01-.578-.049-.135-.28-.399-.43-.288zm-.675.685c-.03.177-.07.354-.114.53.006.082.05.209-.004.281-.054.075-.177.12-.262.085a.241.241 0 0 1 .002.038 1.213 1.213 0 0 1-.073.317c.231.002.64-.09.748-.335.042-.143.102-.42.085-.564-.029-.135-.222-.435-.382-.352zm-.74.546c-.012.038-.026.076-.04.114a5.73 5.73 0 0 1-.163.391c-.008.087.013.218-.056.282-.068.063-.2.087-.282.038-.002.013-.002.025-.006.037-.019.094-.088.22-.137.302.238.044.672.024.828-.206.046-.094.085-.189.12-.288.025-.08.052-.17.055-.255-.01-.144-.16-.464-.32-.415zm-.84.412a4.37 4.37 0 0 1-.29.456c-.022.084-.026.215-.105.264-.08.05-.214.044-.284-.02l-.011.036a1.223 1.223 0 0 1-.195.266c.224.092.656.163.852-.033.091-.116.245-.356.278-.5.02-.146-.073-.487-.245-.469zm-.893.234a4.31 4.31 0 0 1-.374.385c-.04.076-.071.203-.16.236-.033.01-.06.012-.095.01a.257.257 0 0 1-.185-.093c-.004.01-.011.022-.017.032-.056.077-.17.163-.247.218.145.105.278.159.45.191.117.02.302.036.404-.036.114-.097.313-.298.375-.433.046-.14.02-.494-.15-.51zm-.93.036c-.14.107-.29.206-.443.295-.054.066-.108.185-.2.195-.091.012-.213-.048-.252-.14-.007.011-.015.021-.025.03a1.055 1.055 0 0 1-.28.16c.17.182.537.427.793.333.13-.069.365-.224.452-.34.075-.128.121-.478-.045-.533zm-.908-.165a3.844 3.844 0 0 1-.49.196c-.066.054-.14.159-.233.15-.091-.007-.2-.092-.22-.189l-.03.023c-.078.048-.215.082-.306.102.133.21.446.526.714.488.139-.04.397-.143.503-.24.097-.107.21-.441.062-.53zm-.862-.35a5.78 5.78 0 0 1-.315.062l-.198.034c-.072.039-.164.13-.251.107-.087-.024-.174-.125-.176-.221-.011.008-.02.012-.032.018-.085.034-.22.046-.311.05.089.222.328.584.586.59l.072-.008c.144-.02.337-.056.467-.127.115-.084.29-.388.158-.505zm-.774-.502a4.947 4.947 0 0 1-.519.008c-.079.026-.185.099-.266.06a.277.277 0 0 1-.148-.251.092.092 0 0 1-.033.012c-.09.02-.228.008-.32-.004.06.236.248.638.505.693.14.01.413.004.542-.048.118-.06.353-.329.24-.47zm-.7-.638a5.174 5.174 0 0 1-.525-.085c-.083.014-.198.068-.275.016-.08-.052-.14-.181-.118-.278a.105.105 0 0 1-.035.006.817.817 0 0 1-.185-.022c-.006.002-.112-.018-.125-.02 0 .038.003.074.007.11.049.21.19.577.402.655.14.035.414.075.55.047.13-.043.399-.266.304-.43zm-.629-.768a4.955 4.955 0 0 1-.482-.117c-.077.008-.2.05-.266-.002a.248.248 0 0 1-.066-.262.204.204 0 0 1-.034.004c-.09 0-.215-.04-.3-.066-.007.217.056.63.274.733.132.04.27.07.407.083.006.006.095.01.11.01.14-.02.42-.2.361-.377l-.004-.006zm-.474-.75a6.813 6.813 0 0 1-.475-.183c-.077-.004-.204.025-.264-.038a.258.258 0 0 1-.044-.274c-.012.002-.024 0-.035 0a1.177 1.177 0 0 1-.291-.105c-.027.222-.002.647.206.78.123.058.37.15.503.15.128-.011.448-.158.4-.33zm-.41-.83a6.754 6.754 0 0 1-.458-.245c-.08-.012-.207.002-.263-.068-.056-.073-.067-.208-.017-.286a.108.108 0 0 1-.037-.007 1.125 1.125 0 0 1-.281-.14c-.047.225-.06.66.137.82.12.074.357.197.49.215.13.004.463-.107.43-.288zm-.337-.898a7.125 7.125 0 0 1-.436-.304c-.079-.022-.206-.022-.256-.1-.048-.081-.05-.218.006-.295a.509.509 0 0 1-.127-.058h-.207c-.046.238-.054.572.094.725.112.089.342.242.473.276.133.02.47-.056.453-.244zm11.037.224a14.22 14.22 0 0 0-.189-.506c-.085-.096-.083-.344-.01-.475h-.43a.702.702 0 0 0-.038.37c.046.132.206.426.293.526.068.069.363.256.374.085zm-.358.92a11.062 11.062 0 0 0-.145-.511c-.087-.119-.044-.417.071-.504a2.585 2.585 0 0 1-.196-.352c-.184.129-.375.463-.34.7.037.134.168.434.247.543.058.068.337.29.363.125zm-.433.849a9.648 9.648 0 0 0-.1-.514c-.075-.123-.01-.405.112-.475a2.93 2.93 0 0 1-.164-.365c-.19.103-.409.4-.393.635.025.134.13.44.198.553.049.073.307.325.347.166zm-.513.783c0-.052 0-.109-.002-.16a5.851 5.851 0 0 0-.04-.366c-.062-.124.025-.392.152-.445a3.124 3.124 0 0 1-.133-.37c-.193.072-.434.332-.44.56.012.096.043.217.066.312.017.087.035.185.068.268.042.092.264.366.33.201zm-.667.786c.021-.181.037-.365.046-.546-.042-.145.103-.421.238-.47a2.503 2.503 0 0 1-.054-.271l-.03-.125a.437.437 0 0 0-.094.028c-.164.093-.41.328-.45.53-.007.157.01.453.045.606.03.09.214.399.299.248zm-.745.653c.045-.174.083-.349.112-.526-.02-.145.147-.389.286-.411a3.574 3.574 0 0 1-.03-.407c-.21.03-.52.232-.593.451a2.952 2.952 0 0 0-.031.596c.017.091.154.43.256.297zm-.83.511a5.385 5.385 0 0 0 .204-.501c-.002-.143.189-.353.327-.35-.001-.13.01-.27.024-.4-.216-.01-.5.123-.621.314-.002.005-.006.01-.008.017-.05.145-.12.433-.131.584 0 .096.077.451.204.336zm-.925.35c.104-.144.2-.295.288-.45.027-.142.26-.313.397-.287.021-.129.056-.265.09-.39-.202-.045-.547.032-.684.21a3.62 3.62 0 0 0-.23.545c-.015.093-.007.457.14.373zm-.976.148c.131-.117.257-.244.372-.379.054-.13.313-.252.442-.197.043-.121.102-.248.158-.365-.189-.085-.534-.08-.7.064a3.51 3.51 0 0 0-.335.484c-.035.089-.099.447.063.393zm-.991-.067c.15-.086.297-.183.44-.288.08-.107.231-.139.356-.135a.252.252 0 0 1 .12.036c.067-.108.15-.22.228-.322a.625.625 0 0 0-.348-.129c-.098-.008-.27-.014-.358.04a3.38 3.38 0 0 0-.42.401c-.053.079-.186.415-.018.397zm-.947-.272c.166-.054.328-.119.486-.191.098-.1.382-.1.478.004.087-.093.191-.183.286-.266-.14-.157-.458-.3-.666-.238a3.254 3.254 0 0 0-.49.305c-.065.066-.26.368-.094.386zm-.876-.457c.09-.014.18-.03.27-.048.079-.014.158-.03.237-.049.118-.076.4-.016.475.107.102-.072.222-.139.331-.201-.108-.188-.399-.391-.617-.375a2.108 2.108 0 0 0-.173.05c-.112.043-.257.093-.361.153-.073.053-.318.317-.162.363zm-.772-.596c.172.006.346.004.517-.006.126-.057.388.048.44.183.112-.052.24-.097.355-.137-.07-.205-.316-.455-.532-.477-.149.01-.429.058-.566.106-.084.039-.364.256-.214.33zm-.698-.735c.172.036.347.064.52.084.138-.032.39.123.423.266.12-.03.255-.05.38-.066-.044-.222-.264-.522-.482-.585-.15-.018-.44-.02-.584.004-.095.027-.398.196-.257.297zm-.575-.796c.158.044.319.084.48.117a.219.219 0 0 1 .09.008c.129.056.271.175.298.326.126-.01.266-.006.394 0-.014-.242-.158-.453-.324-.614-.025-.02-.054-.045-.087-.053a2.493 2.493 0 0 0-.56-.04c-.082.016-.41.151-.29.256zm-.46-.82c.156.066.312.127.472.183.135-.004.334.194.324.339a2.58 2.58 0 0 1 .374.028c.023-.218-.102-.55-.297-.657-.14-.05-.41-.109-.557-.117-.087.006-.427.105-.317.224zm-.388-.892c.15.086.302.169.457.243.137.016.316.244.295.39.121.013.254.045.374.078.04-.22-.058-.578-.241-.713a2.372 2.372 0 0 0-.55-.188c-.09-.006-.434.055-.335.19zm-.309-.96c.14.108.285.208.434.305.137.03.295.288.26.433.122.03.253.079.369.127.062-.224-.008-.602-.18-.762a2.33 2.33 0 0 0-.532-.257c-.094-.018-.438.006-.351.155zm.39-.386c.023.075.032.15.015.203.118.045.243.111.355.174.037-.101.05-.238.037-.377h-.407z"/>
            <path fill="url(#j)" d="M12.464 0c.054.048.11.1.116.167.004.095-.058.216-.144.252.01.008.017.016.025.026.06.07.117.202.154.288.158-.153.388-.48.353-.733h-.504zm-.522.423c.067.167.13.338.19.512.05.064.157.14.153.231-.002.095-.075.204-.162.23.008.008.015.018.023.028.052.075.097.206.126.294.18-.137.455-.455.409-.71-.043-.14-.145-.404-.234-.51-.096-.101-.415-.24-.505-.075zm-.31.92c.053.172.101.343.146.516.044.069.143.155.133.244-.012.09-.095.19-.183.203a.117.117 0 0 1 .02.03c.047.08.08.212.101.303.19-.113.49-.39.467-.647-.033-.14-.112-.407-.19-.52-.086-.104-.39-.277-.495-.128zm-.385.855c.039.17.072.344.1.517.04.07.128.168.11.254-.019.087-.11.171-.196.173l.017.033c.037.082.058.215.072.306.194-.085.518-.32.518-.572-.019-.141-.075-.41-.142-.528-.076-.11-.361-.316-.479-.183zm-.451.78c.02.146.035.291.046.438v.085c.03.083.104.19.07.28-.033.09-.141.177-.238.175.006.01.01.022.014.035.023.092.02.24.015.334.238-.07.53-.282.631-.524a.18.18 0 0 0 .01-.054c-.006-.141-.037-.407-.093-.532-.065-.119-.332-.349-.455-.238zm-.573.767a7.603 7.603 0 0 1-.046.552c.02.084.079.2.035.284-.043.082-.16.149-.251.13a.243.243 0 0 1 .007.037c.012.095-.01.236-.027.328.232-.038.627-.201.703-.465.02-.147.044-.437.01-.578-.049-.135-.28-.399-.43-.288zm-.675.685c-.03.177-.07.354-.114.53.006.082.05.209-.004.281-.054.075-.177.12-.262.085a.241.241 0 0 1 .002.038 1.213 1.213 0 0 1-.073.317c.231.002.64-.09.748-.335.042-.143.102-.42.085-.564-.029-.135-.222-.435-.382-.352zm-.74.546c-.012.038-.026.076-.04.114a5.73 5.73 0 0 1-.163.391c-.008.087.013.218-.056.282-.068.063-.2.087-.282.038-.002.013-.002.025-.006.037-.019.094-.088.22-.137.302.238.044.672.024.828-.206.046-.094.085-.189.12-.288.025-.08.052-.17.055-.255-.01-.144-.16-.464-.32-.415zm-.84.412a4.37 4.37 0 0 1-.29.456c-.022.084-.026.215-.105.264-.08.05-.214.044-.284-.02l-.011.036a1.223 1.223 0 0 1-.195.266c.224.092.656.163.852-.033.091-.116.245-.356.278-.5.02-.146-.073-.487-.245-.469zm-.893.234a4.31 4.31 0 0 1-.374.385c-.04.076-.071.203-.16.236-.033.01-.06.012-.095.01a.257.257 0 0 1-.185-.093c-.004.01-.011.022-.017.032-.056.077-.17.163-.247.218.145.105.278.159.45.191.117.02.302.036.404-.036.114-.097.313-.298.375-.433.046-.14.02-.494-.15-.51zm-.93.036c-.14.107-.29.206-.443.295-.054.066-.108.185-.2.195-.091.012-.213-.048-.252-.14-.007.011-.015.021-.025.03a1.055 1.055 0 0 1-.28.16c.17.182.537.427.793.333.13-.069.365-.224.452-.34.075-.128.121-.478-.045-.533zm-.908-.165a3.844 3.844 0 0 1-.49.196c-.066.054-.14.159-.233.15-.091-.007-.2-.092-.22-.189l-.03.023c-.078.048-.215.082-.306.102.133.21.446.526.714.488.139-.04.397-.143.503-.24.097-.107.21-.441.062-.53zm-.862-.35a5.78 5.78 0 0 1-.315.062l-.198.034c-.072.039-.164.13-.251.107-.087-.024-.174-.125-.176-.221-.011.008-.02.012-.032.018-.085.034-.22.046-.311.05.089.222.328.584.586.59l.072-.008c.144-.02.337-.056.467-.127.115-.084.29-.388.158-.505zM3.6 4.64a4.947 4.947 0 0 1-.519.008c-.079.026-.185.099-.266.06a.277.277 0 0 1-.148-.251.092.092 0 0 1-.033.012c-.09.02-.228.008-.32-.004.06.236.248.638.505.693.14.01.413.004.542-.048.118-.06.353-.329.24-.47zm-.7-.638a5.174 5.174 0 0 1-.525-.085c-.083.014-.198.068-.275.016-.08-.052-.14-.181-.118-.278a.105.105 0 0 1-.035.006.817.817 0 0 1-.185-.022c-.006.002-.112-.018-.125-.02 0 .038.003.074.007.11.049.21.19.577.402.655.14.035.414.075.55.047.13-.043.399-.266.304-.43zm-.629-.768a4.955 4.955 0 0 1-.482-.117c-.077.008-.2.05-.266-.002a.248.248 0 0 1-.066-.262.204.204 0 0 1-.034.004c-.09 0-.215-.04-.3-.066-.007.217.056.63.274.733.132.04.27.07.407.083.006.006.095.01.11.01.14-.02.42-.2.361-.377l-.004-.006zm-.474-.75a6.813 6.813 0 0 1-.475-.183c-.077-.004-.204.025-.264-.038a.258.258 0 0 1-.044-.274c-.012.002-.024 0-.035 0a1.177 1.177 0 0 1-.291-.105c-.027.222-.002.647.206.78.123.058.37.15.503.15.128-.011.448-.158.4-.33zm-.41-.83A6.754 6.754 0 0 1 .93 1.41c-.08-.012-.207.002-.263-.068C.611 1.269.6 1.134.65 1.056a.108.108 0 0 1-.037-.007A1.125 1.125 0 0 1 .332.91c-.047.225-.06.66.137.82.12.074.357.197.49.215.13.004.463-.107.43-.288zM1.052.758A7.125 7.125 0 0 1 .615.453C.536.431.41.431.36.353.31.272.309.135.365.058A.509.509 0 0 1 .238 0H.03c-.046.238-.054.572.094.725.112.089.342.242.473.276.133.02.47-.056.453-.244zm11.037.224A14.22 14.22 0 0 0 11.9.475C11.814.38 11.816.131 11.89 0h-.43a.702.702 0 0 0-.038.37c.046.132.206.426.293.526.068.069.363.256.374.085zm-.358.92a11.062 11.062 0 0 0-.145-.511c-.087-.119-.044-.417.071-.504a2.585 2.585 0 0 1-.196-.352c-.184.129-.375.463-.34.7.037.134.168.434.247.543.058.068.337.29.363.125zm-.433.849a9.648 9.648 0 0 0-.1-.514c-.075-.123-.01-.405.112-.475a2.93 2.93 0 0 1-.164-.365c-.19.103-.409.4-.393.635.025.134.13.44.198.553.049.073.307.325.347.166zm-.513.783c0-.052 0-.109-.002-.16a5.851 5.851 0 0 0-.04-.366c-.062-.124.025-.392.152-.445a3.124 3.124 0 0 1-.133-.37c-.193.072-.434.332-.44.56.012.096.043.217.066.312.017.087.035.185.068.268.042.092.264.366.33.201zm-.667.786c.021-.181.037-.365.046-.546-.042-.145.103-.421.238-.47a2.503 2.503 0 0 1-.054-.271l-.03-.125a.437.437 0 0 0-.094.028c-.164.093-.41.328-.45.53-.007.157.01.453.045.606.03.09.214.399.299.248zm-.745.653c.045-.174.083-.349.112-.526-.02-.145.147-.389.286-.411a3.574 3.574 0 0 1-.03-.407c-.21.03-.52.232-.593.451a2.952 2.952 0 0 0-.031.596c.017.091.154.43.256.297zm-.83.511a5.385 5.385 0 0 0 .204-.501c-.002-.143.189-.353.327-.35-.001-.13.01-.27.024-.4-.216-.01-.5.123-.621.314-.002.005-.006.01-.008.017-.05.145-.12.433-.131.584 0 .096.077.451.204.336zm-.925.35c.104-.144.2-.295.288-.45.027-.142.26-.313.397-.287.021-.129.056-.265.09-.39-.202-.045-.547.032-.684.21a3.62 3.62 0 0 0-.23.545c-.015.093-.007.457.14.373zm-.976.148c.131-.117.257-.244.372-.379.054-.13.313-.252.442-.197.043-.121.102-.248.158-.365-.189-.085-.534-.08-.7.064a3.51 3.51 0 0 0-.335.484c-.035.089-.099.447.063.393zm-.991-.067c.15-.086.297-.183.44-.288.08-.107.231-.139.356-.135a.252.252 0 0 1 .12.036c.067-.108.15-.22.228-.322a.625.625 0 0 0-.348-.129c-.098-.008-.27-.014-.358.04a3.38 3.38 0 0 0-.42.401c-.053.079-.186.415-.018.397zm-.947-.272c.166-.054.328-.119.486-.191.098-.1.382-.1.478.004.087-.093.191-.183.286-.266-.14-.157-.458-.3-.666-.238a3.254 3.254 0 0 0-.49.305c-.065.066-.26.368-.094.386zm-.876-.457c.09-.014.18-.03.27-.048.079-.014.158-.03.237-.049.118-.076.4-.016.475.107.102-.072.222-.139.331-.201-.108-.188-.399-.391-.617-.375a2.108 2.108 0 0 0-.173.05c-.112.043-.257.093-.361.153-.073.053-.318.317-.162.363zm-.772-.596c.172.006.346.004.517-.006.126-.057.388.048.44.183.112-.052.24-.097.355-.137-.07-.205-.316-.455-.532-.477-.149.01-.429.058-.566.106-.084.039-.364.256-.214.33zm-.698-.735c.172.036.347.064.52.084.138-.032.39.123.423.266.12-.03.255-.05.38-.066-.044-.222-.264-.522-.482-.585-.15-.018-.44-.02-.584.004-.095.027-.398.196-.257.297zm-.575-.796c.158.044.319.084.48.117a.219.219 0 0 1 .09.008c.129.056.271.175.298.326.126-.01.266-.006.394 0-.014-.242-.158-.453-.324-.614-.025-.02-.054-.045-.087-.053a2.493 2.493 0 0 0-.56-.04c-.082.016-.41.151-.29.256zm-.46-.82c.156.066.312.127.472.183.135-.004.334.194.324.339a2.58 2.58 0 0 1 .374.028c.023-.218-.102-.55-.297-.657-.14-.05-.41-.109-.557-.117-.087.006-.427.105-.317.224zm-.388-.892c.15.086.302.169.457.243.137.016.316.244.295.39.121.013.254.045.374.078.04-.22-.058-.578-.241-.713a2.372 2.372 0 0 0-.55-.188c-.09-.006-.434.055-.335.19zM.625.386c.14.108.285.208.434.305.137.03.295.288.26.433.122.03.253.079.369.127.062-.224-.008-.602-.18-.762A2.33 2.33 0 0 0 .976.232C.882.214.538.238.625.387zM1.015 0c.023.075.032.15.015.203.118.045.243.111.355.174.037-.101.05-.238.037-.377h-.407z" transform="translate(24 33)"/>
        </g>
        <g>
            <path fill="url(#k)" stroke="#000" stroke-linecap="round" stroke-linejoin="round" stroke-width=".922" d="M.93 10.836C-.706 6.565-.114 1.476 2.167.046 3.587-.248 6.805.9 7.263 2.659 5.435 4.918 2.758 8.578.93 10.836z" transform="translate(18 15)"/>
            <path fill="url(#l)" d="M7.72 5.256c-.958-2.482-3.142-3.995-5.162-4.203-2.223 1.922-1.287 7.449-.521 9.167.626-1.588 2.368-3.947 5.682-4.964z" transform="translate(18 15)"/>
            <path fill="url(#m)" d="M5.61 4.13c-.75-1.635-3.046-2.153-3.383-1.308-.343.858.978 1.092 1.626 1.318-.47-.066-1.54-.011-1.485.715.06.768.887.684 1.748.641.27-.361 1.185-1.148 1.494-1.365z" transform="translate(18 15)"/>
            <path fill="#000" fill-opacity=".2" d="M25.28 19.327c-1.092-1.929-2.968-3.093-4.722-3.274 2.324 1.2 2.735 3.008.766 5.22.507-.652 2.506-1.386 3.956-1.946z"/>
            <g>
                <path fill="url(#n)" stroke="#000" stroke-linecap="round" stroke-linejoin="round" stroke-width=".922" d="M6.79 10.836C8.426 6.565 7.833 1.476 5.552.046 4.132-.248.915.9.456 2.659c1.828 2.26 4.506 5.92 6.334 8.178z" transform="translate(34.078 15)"/>
                <path fill="url(#o)" d="M0 5.256c.958-2.482 3.141-3.995 5.161-4.203 2.223 1.922 1.288 7.449.522 9.167C5.057 8.632 3.315 6.273 0 5.256z" transform="translate(34.078 15)"/>
                <path fill="url(#p)" d="M2.11 4.13c.75-1.635 3.046-2.153 3.383-1.308.343.858-.978 1.092-1.627 1.318.47-.066 1.541-.011 1.485.715-.06.768-.887.684-1.747.641-.27-.361-1.186-1.148-1.495-1.365z" transform="translate(34.078 15)"/>
                <path fill="#000" fill-opacity=".2" d="M34.518 19.327c1.091-1.929 2.968-3.093 4.721-3.274-2.323 1.2-2.735 3.008-.766 5.22-.507-.652-2.506-1.386-3.955-1.946z"/>
            </g>
        </g>
        <g>
            <path fill="url(#q)" stroke="#000" stroke-linecap="round" stroke-linejoin="round" stroke-width=".614" d="M1.06 1.213C.906.912.854.743.7.441.648.3.706-.01.78.004c.186.005.392.007.58-.004.005.341.077.782.172 1.153l-.471.06z" transform="translate(20 37)"/>
            <path fill="#FFF" fill-opacity=".2" d="M21.06 38.213c-.154-.301-.206-.47-.36-.772-.052-.141.006-.45.079-.437h.014c.095.412.294.793.505 1.18l-.238.03z"/>
            <path stroke="#000" stroke-linecap="round" stroke-linejoin="round" stroke-width=".614" d="M21.06 38.213c-.154-.301-.206-.47-.36-.772-.052-.141.006-.45.079-.437.186.005.392.007.58-.004.005.341.077.782.172 1.153l-.471.06z"/>
            <path fill="url(#r)" stroke="#000" stroke-linecap="round" stroke-linejoin="round" stroke-width=".614" d="M.981 1.579c-.304-.12-.45-.213-.754-.334C.1 1.174-.047.901.017.861.16.737.316.595.45.458c.217.254.545.537.849.751-.106.125-.211.247-.319.37z" transform="translate(20 37)"/>
            <path fill="#FFF" fill-opacity=".2" d="M20.981 38.579c-.304-.12-.45-.213-.754-.334-.127-.071-.274-.344-.21-.384l.01-.01c.33.245.716.398 1.115.543l-.16.185z"/>
            <path stroke="#000" stroke-linecap="round" stroke-linejoin="round" stroke-width=".614" d="M20.981 38.579c-.304-.12-.45-.213-.754-.334-.127-.071-.274-.344-.21-.384.144-.124.3-.266.434-.403.217.254.545.537.849.751-.106.125-.211.247-.319.37z"/>
            <path fill="url(#s)" stroke="#000" stroke-width=".614" d="M1.14 1.677c-.27-.127-.456-.27-.27-.513.21-.277.478-.254.862-.062.728.366 1.715 1.145 2.086 1.739.163.262.163.576-.07.77-.231.194-.376-.037-.552-.288-.435-.623-1.37-1.326-2.055-1.646z" transform="translate(20 37)"/>
            <path fill="#FFF" fill-opacity=".2" d="M21.14 38.677c-.14-.066-.259-.138-.315-.225.138-.077.3-.054.43 0a4.994 4.994 0 0 1 2.246 1.835.47.47 0 0 1 .068.396c-.136-.011-.247-.179-.373-.36-.435-.623-1.37-1.326-2.055-1.646z"/>
            <path stroke="#000" stroke-width=".614" d="M21.14 38.677c-.27-.127-.456-.27-.27-.513.21-.277.478-.254.862-.062.728.366 1.715 1.145 2.086 1.739.163.262.163.576-.07.77-.231.194-.376-.037-.552-.288-.435-.623-1.37-1.326-2.055-1.646z"/>
            <path fill="url(#t)" stroke="#000" stroke-linecap="round" stroke-linejoin="round" stroke-width=".614" d="M18.94 1.213c.155-.301.207-.47.361-.772.052-.141-.005-.45-.079-.437a6.625 6.625 0 0 1-.58-.004 5.293 5.293 0 0 1-.174 1.153l.471.06z" transform="translate(20 37)"/>
            <path fill="#FFF" fill-opacity=".2" d="M38.94 38.213c.155-.301.207-.47.361-.772.052-.141-.005-.45-.079-.437h-.014c-.095.412-.294.793-.505 1.18l.236.03z"/>
            <path stroke="#000" stroke-linecap="round" stroke-linejoin="round" stroke-width=".614" d="M38.94 38.213c.155-.301.207-.47.361-.772.052-.141-.005-.45-.079-.437a6.625 6.625 0 0 1-.58-.004 5.293 5.293 0 0 1-.174 1.153l.471.06z"/>
            <path fill="url(#u)" stroke="#000" stroke-linecap="round" stroke-linejoin="round" stroke-width=".614" d="M19.018 1.579c.305-.12.451-.213.756-.334.127-.071.274-.344.211-.384a6.912 6.912 0 0 1-.435-.403 4.908 4.908 0 0 1-.85.751l.318.37z" transform="translate(20 37)"/>
            <path fill="#FFF" fill-opacity=".2" d="M39.018 38.579c.305-.12.451-.213.756-.334.127-.071.274-.344.211-.384l-.01-.01c-.33.245-.717.398-1.116.543l.16.185z"/>
            <path stroke="#000" stroke-linecap="round" stroke-linejoin="round" stroke-width=".614" d="M39.018 38.579c.305-.12.451-.213.756-.334.127-.071.274-.344.211-.384a6.912 6.912 0 0 1-.435-.403 4.908 4.908 0 0 1-.85.751l.318.37z"/>
            <path fill="url(#v)" stroke="#000" stroke-width=".614" d="M18.86 1.677c.271-.127.457-.27.271-.513-.21-.277-.478-.254-.861-.062-.73.366-1.716 1.145-2.086 1.739-.163.262-.163.576.07.77.23.194.375-.037.55-.288.436-.623 1.37-1.326 2.057-1.646z" transform="translate(20 37)"/>
            <path fill="#FFF" fill-opacity=".2" d="M38.86 38.677c.142-.066.26-.138.314-.225-.136-.077-.297-.054-.428 0a4.975 4.975 0 0 0-2.245 1.835.47.47 0 0 0-.068.396c.136-.011.245-.179.37-.36.437-.623 1.372-1.326 2.058-1.646z"/>
            <path stroke="#000" stroke-width=".614" d="M38.86 38.677c.271-.127.457-.27.271-.513-.21-.277-.478-.254-.861-.062-.73.366-1.716 1.145-2.086 1.739-.163.262-.163.576.07.77.23.194.375-.037.55-.288.436-.623 1.37-1.326 2.057-1.646z"/>
        </g>
        <g>
            <path fill="url(#w)" d="M11.936.134C7.316.14 2.529 4.58 1.032 9.114a48.17 48.17 0 0 0-.598 2.012c-.236.856-.478 2.207-.104 2.462.313.213.658-.068 1.136-.051-.564.408-1.453 1.134-1.011 1.72.35.468.887-.167 1.558.012-.477.134-1.016.726-.877 1.102.103.28.45.413.983.445 1.928.115 3.878 1.187 5.284 1.588 1.415.402 2.997.522 4.533.522 1.536 0 3.118-.12 4.533-.522 1.405-.401 3.356-1.473 5.284-1.588.533-.032.88-.166.982-.445.14-.376-.4-.968-.878-1.102.673-.18 1.21.456 1.56-.011.442-.587-.447-1.313-1.012-1.721.479-.017.823.264 1.135.051.376-.255.134-1.606-.105-2.462a45.479 45.479 0 0 0-.595-2.013C21.342 4.58 16.556.14 11.936.134z" transform="translate(18 16)"/>
            <path fill="url(#x)" d="M11.936 17.758c-2.311 0-2.517-1.065-4.31-1.443-1.535-.323-.566-1.402-.79-1.358-.639.067-.974-.066-.892-.812.066-.607 1.098-2.255 3.646-3.081.925-.303 1.475-.938 2.346-.938.87 0 1.42.635 2.346.938 2.548.826 3.58 2.474 3.645 3.08.081.747-.252.88-.892.813-.224-.044.746 1.035-.79 1.358-1.793.378-1.998 1.443-4.31 1.443z" transform="translate(18 16)"/>
            <path fill="#000" d="M19.925 23.079c-.395.88-.8 2.143-1.076 3.088-.101.346-.195.682-.28.993-.135.483-.27 1.128-.292 1.632-.015.34.018.609.132.687.135.092.304.05.502.002.165-.041.346-.086.559-.077a.133.133 0 0 1 .132.138.124.124 0 0 1-.055.102c-.275.199-.627.474-.854.768-.204.26-.303.535-.128.767.135.18.34.117.588.04.26-.08.555-.17.896-.08.073.02.117.094.097.165a.141.141 0 0 1-.104.097l-.039.01c-.201.072-.414.232-.562.414-.138.17-.22.353-.18.487.002.005.004.01.004.014.038.102.126.18.258.238.15.066.354.104.603.118 1.323.079 2.645.596 3.802 1.049.31.122 1.708.717 2.815.948-1.06 0-2.627-.587-2.916-.7-1.138-.445-2.438-.953-3.716-1.028-.282-.018-.518-.063-.7-.142-.201-.087-.339-.216-.403-.393a.488.488 0 0 0-.01-.029c-.067-.227.038-.496.228-.728a1.7 1.7 0 0 1 .257-.254c-.086.02-.169.046-.25.07-.346.107-.64.196-.89-.138-.266-.355-.141-.736.13-1.088.141-.181.324-.355.51-.508h-.004c-.264.064-.49.12-.726-.043-.205-.14-.268-.49-.25-.917.023-.53.162-1.193.3-1.69.087-.315.183-.657.282-.997.25-.86.83-2.328 1.34-3.015z"/>
            <path fill="#000" fill-opacity=".2" d="M19.798 23.317c-.308.59-.566 1.193-.766 1.796a48.17 48.17 0 0 0-.598 2.013c-.236.856-.478 2.207-.104 2.462.313.213.658-.068 1.136-.051-.564.408-1.453 1.134-1.011 1.72.35.468.887-.167 1.558.012-.477.134-1.016.726-.877 1.102.103.28.45.413.983.445 1.928.115 3.878 1.187 5.284 1.588.169.048.341.09.515.128.213.038.41.074.587.111-3.219-.903-5.263-2.265-6.221-4.122-1.049-2.037-.98-4.638-.486-7.204z"/>
            <path fill="#000" d="M39.947 23.079c.394.88.8 2.143 1.074 3.088.103.346.196.682.282.993.134.483.27 1.128.292 1.632.014.34-.019.609-.132.687-.136.092-.304.05-.502.002a1.896 1.896 0 0 0-.56-.077.135.135 0 0 0-.133.138.13.13 0 0 0 .057.102c.273.199.626.474.854.768.203.26.302.535.128.767-.136.18-.343.117-.588.04-.26-.08-.556-.17-.897-.08a.134.134 0 0 0-.097.165c.015.05.055.086.105.097l.038.01c.202.072.414.232.563.414.137.17.22.353.18.487a.054.054 0 0 0-.004.014c-.039.102-.127.18-.259.238-.15.066-.353.104-.604.118-1.322.079-2.643.596-3.8 1.049-.312.122-1.708.717-2.815.948 1.06 0 2.626-.587 2.916-.7 1.138-.445 2.438-.953 3.715-1.028.282-.018.519-.063.7-.142.202-.087.34-.216.403-.393a.488.488 0 0 1 .011-.029c.066-.227-.04-.496-.229-.728a1.7 1.7 0 0 0-.256-.254c.086.02.168.046.249.07.346.107.638.196.889-.138.268-.355.143-.736-.128-1.088a3.457 3.457 0 0 0-.51-.508h.004c.264.064.487.12.726-.043.205-.14.267-.49.249-.917-.022-.53-.161-1.193-.299-1.69-.088-.315-.183-.657-.282-.997-.253-.86-.83-2.328-1.34-3.015zM29.936 16.268c-.748 0-1.406.1-2.02.267-1.74.469-3.732 1.609-4.976 2.682 1.107-1.306 3.141-2.465 4.903-2.941A7.925 7.925 0 0 1 29.936 16c.771 0 1.455.104 2.091.276 1.763.476 3.798 1.635 4.905 2.941-1.245-1.073-3.237-2.213-4.976-2.682a7.604 7.604 0 0 0-2.02-.267z"/>
        </g>
        <g>
            <path fill="#000" fill-rule="nonzero" d="M27.19 28.93c0-.084.073-.153.163-.153.09 0 .163.07.163.154 0 .394.397.7.87.73.62.035 1.42-.514 1.42-1.328 0-.084.073-.153.162-.153.09 0 .163.069.163.153 0 1.01-.975 1.68-1.766 1.634-.629-.038-1.175-.46-1.175-1.036z"/>
            <path fill="#000" fill-rule="nonzero" d="M32.421 28.93c0-.084.073-.153.163-.153.09 0 .162.07.162.154 0 .576-.545.998-1.175 1.036-.79.046-1.765-.623-1.765-1.634 0-.084.073-.153.162-.153.09 0 .163.069.163.153 0 .814.8 1.363 1.42 1.327.473-.028.87-.335.87-.73z"/>
            <path fill="#000" d="M29.968 28.506c.048.712.603 1.157 1.228 1.378a5.075 5.075 0 0 0-1.228-.176c-.359 0-.762.059-1.23.176.627-.22 1.183-.666 1.23-1.378z"/>
            <path fill="#000" fill-rule="nonzero" d="M30.116 29.423a1.168 1.168 0 0 0 .625-.527l.09-.16c.144-.252.284-.37.554-.393.458-.04.755.253.81.679.049.381-.11.774-.437.901-.195.044-.38.037-.595-.01a4.23 4.23 0 0 1-.316-.084c-.288-.082-.454-.114-.666-.11-.178.002-.23-.23-.065-.296z"/>
            <path fill="#F99" fill-rule="nonzero" d="M30.94 29.535c.202.057.221.062.297.079.17.037.305.042.42.018.145-.057.248-.313.215-.573-.036-.275-.196-.433-.457-.41-.14.012-.2.062-.297.232l-.092.163c-.042.071-.082.132-.127.19a1.35 1.35 0 0 1-.228.23c.081.019.17.042.27.07z"/>
        </g>
        <g>
            <g transform="translate(20 22.037)">
                <path fill="url(#y)" d="M2.236 6.32c1.399.885 3.092.533 3.999.086 1.554-.767.287-5.169-1.363-5.452-1.207-.208-2.298.216-3.075 1.045-1.641 1.752-.555 3.692.439 4.322z"/>
                <path fill="#000" fill-opacity=".502" d="M6.916 5.208c.188-1.577-.822-4.045-2.044-4.254-1.207-.208-2.298.216-3.075 1.045-.506.539-.756 1.1-.833 1.635.79-1.417 2.206-2.165 3.363-1.989 1.646.249 2.304 1.806 2.568 3.659a.91.91 0 0 0 .021-.096z"/>
                <path fill="url(#z)" d="M5.99 4.05C5.916 2.578 4.994.725 3.906.547A3.538 3.538 0 0 0 3.432.5c-.832.032-1.57.38-2.13.947-1.499 1.515-.554 3.215.355 3.76 1.276.766 2.868.435 3.694.05.412-.192.607-.65.64-1.207z" transform="translate(.964 .9)"/>
                <path fill="url(#A)" d="M3.79 1.35a2.392 2.392 0 0 1 2.823 1.772 2.273 2.273 0 0 1-1.74 2.76A2.392 2.392 0 0 1 2.05 4.11a2.274 2.274 0 0 1 1.74-2.76z"/>
                <g fill="#FFF" transform="translate(2.098 1.201)">
                    <ellipse cx="1.011" cy="1.233" rx="1" ry="1" transform="rotate(-62.039 1.01 1.233)"/>
                    <circle cx="3.687" cy="3.371" r="1" transform="rotate(-6.492 3.687 3.371)"/>
                </g>
                <circle cx="6.065" cy="5.403" r="1" fill="#FFF" transform="rotate(-63.101 6.065 5.403)"/>
                <g fill="#FFF">
                    <path d="M2.071 5.08c.62-.058.696-.255.736-.966.038.711.115.908.735.967-.62.058-.697.255-.735.965-.04-.71-.116-.907-.736-.965z"/>
                    <path d="M1.936 5.6c.255-.024.285-.107.302-.399.016.292.047.375.303.398-.256.024-.287.106-.303.398-.017-.292-.047-.374-.302-.398z"/>
                    <g>
                        <path d="M3.504 5.634c.112-.012.127-.05.134-.194.006.143.02.182.132.194-.112.013-.126.052-.132.194-.007-.142-.022-.181-.134-.194zM5.608 6.243c.112-.013.126-.052.132-.194.007.142.022.181.134.194-.112.012-.127.05-.134.194-.006-.143-.02-.182-.132-.194zM5.254 5.777c.112-.011.126-.05.132-.192.007.142.021.181.133.192-.112.013-.126.052-.133.194-.006-.142-.02-.18-.132-.194z"/>
                    </g>
                </g>
                <path fill="#000" fill-rule="nonzero" d="M2.146 6.444C.715 5.538.21 3.466 1.676 1.901 2.516 1.004 3.675.595 4.902.807 6.74 1.123 7.967 5.72 6.31 6.538c-1.262.621-2.911.699-4.164-.094zm4.014-.17c1.37-.676.241-4.906-1.317-5.173-1.112-.192-2.157.176-2.925.996-1.33 1.42-.874 3.288.408 4.1 1.142.723 2.668.651 3.834.077z"/>
            </g>
            <path fill="url(#B)" d="M5.669 6.32c-1.397.885-3.09.533-3.997.086C.117 5.64 1.384 1.237 3.034.954 4.24.746 5.333 1.17 6.11 1.999c1.64 1.752.555 3.692-.441 4.322z" transform="translate(31.774 22.037)"/>
            <path fill="#000" fill-opacity=".502" d="M32.764 27.245c-.188-1.577.822-4.044 2.044-4.254 1.205-.208 2.299.216 3.076 1.045.504.539.755 1.1.833 1.635-.79-1.417-2.207-2.165-3.363-1.989-1.647.249-2.304 1.806-2.57 3.659l-.02-.096z"/>
            <path fill="url(#C)" d="M0 4.05C.076 2.578.998.725 2.085.547 2.245.52 2.403.505 2.56.5c.83.032 1.57.38 2.13.947 1.499 1.515.553 3.215-.355 3.76-1.276.766-2.868.435-3.696.05C.228 5.064.033 4.606 0 4.05z" transform="translate(32.726 22.937)"/>
            <path fill="url(#D)" d="M4.117 1.35a2.392 2.392 0 0 0-2.823 1.772 2.273 2.273 0 0 0 1.74 2.76A2.393 2.393 0 0 0 5.857 4.11a2.274 2.274 0 0 0-1.74-2.76z" transform="translate(31.774 22.037)"/>
            <g fill="#FFF" transform="translate(33.45 25.234)">
                <circle cx="3.49" cy="1.375" r="1" transform="rotate(-6.492 3.49 1.375)"/>
                <path d="M0 1.865C.62 1.806.698 1.612.736.9c.04.712.115.906.735.965-.62.059-.696.255-.735.967C.698 2.12.62 1.924 0 1.865z"/>
            </g>
            <path fill="#FFF" d="M33.252 27.645c.255-.024.287-.105.302-.398.016.293.049.374.303.398-.254.025-.287.105-.303.397-.015-.292-.047-.372-.302-.397z"/>
            <g fill="#FFF">
                <path d="M34.66 27.67c.112-.01.126-.05.134-.193.005.143.02.182.131.194-.112.013-.126.052-.131.194-.008-.142-.022-.181-.134-.194zM36.763 28.28c.112-.013.127-.052.132-.194.007.142.022.181.134.194-.112.012-.127.05-.134.194-.005-.143-.02-.182-.132-.194z"/>
                <g transform="translate(33.592 23.265)">
                    <path d="M2.817 4.515c.112-.01.127-.045.132-.173.008.128.022.163.134.173-.112.012-.126.047-.134.175-.005-.128-.02-.163-.132-.175z"/>
                    <ellipse cx="1.07" cy="1.248" rx="1" ry="1" transform="rotate(-53.055 1.07 1.248)"/>
                    <circle cx="3.95" cy="4.174" r="1" transform="rotate(-62.74 3.95 4.174)"/>
                </g>
            </g>
            <path fill="#000" fill-rule="nonzero" d="M37.353 28.234c1.283-.811 1.74-2.68.41-4.1-.768-.82-1.815-1.188-2.926-.996-1.558.267-2.686 4.497-1.317 5.173 1.166.574 2.692.646 3.833-.077zm-3.983.341c-1.657-.817-.43-5.415 1.409-5.731 1.225-.212 2.385.197 3.226 1.094 1.466 1.566.96 3.638-.472 4.543-1.252.793-2.9.715-4.163.094z"/>
            <g>
                <path fill="#3B3426" d="M24.85 21.568c-.155.15-.896.149-1.707.44-.746.264-1.285.73-1.572.622-.32-.12-.183-.782.112-1.086.242-.248 1.017-.555 1.82-.544.947.015 1.537.386 1.348.568z"/>
                <path fill="#000" fill-opacity=".2" d="M24.85 21.568c-.155.15-.896.149-1.707.44-.746.264-1.285.73-1.572.622-.32-.12-.183-.782.112-1.086.242-.248 1.017-.555 1.82-.544.947.015 1.537.386 1.348.568z"/>
            </g>
            <g>
                <path fill="#3B3426" d="M34.83 21.568c.155.15.896.149 1.707.44.747.264 1.285.73 1.573.622.32-.12.182-.782-.112-1.086-.243-.248-1.018-.555-1.82-.544-.947.015-1.538.386-1.348.568z"/>
                <path fill="#000" fill-opacity=".2" d="M34.83 21.568c.155.15.896.149 1.707.44.747.264 1.285.73 1.573.622.32-.12.182-.782-.112-1.086-.243-.248-1.018-.555-1.82-.544-.947.015-1.538.386-1.348.568z"/>
            </g>
        </g>
        <g>
            <path d="M29 24h2.632v2.835H29z"/>
        </g>
        <g fill="url(#E)" stroke="#000" stroke-width=".922" transform="translate(29 26)">
            <path d="M.925 0C.522 0-.041.16.002.4c.04.218.41.57.923.57.513 0 .883-.352.922-.57.044-.24-.52-.4-.922-.4z"/>
        </g>
        <g>
            <path fill="url(#F)" d="M12.99 3.084c2.856 4.357-2.475 9.948-9.03 6.335C5.862 9.523 6.954 8.52 7 7.77c-.77.684-3.816 1.156-5.476-1.187 1.639.294 3.297-.146 3.572-1.245.409-1.63-2.574-2.048-4.893-.85C2.248.133 9.748-1.863 12.991 3.085z" transform="translate(24 13)"/>
            <path fill="#000" fill-opacity=".2" fill-rule="nonzero" d="M36.187 22.08c-1.772 1.614-4.836 2.209-8.227.34 1.397.074 2.358-.446 2.788-1.025.006 2.036 3.708 1.852 5.44.686zm-5.767-.987c-1.199.44-3.522.429-4.895-1.51 1.037.187 2.083.078 2.78-.306l.193.138c-.86.962.607 1.736 1.922 1.678z"/>
            <path fill="#000" fill-rule="nonzero" d="M37.117 16.016c.829 1.263.984 2.628.632 3.853a5.03 5.03 0 0 1-1.527 2.369 5.946 5.946 0 0 1-2.786 1.348c-1.605.316-3.523.065-5.553-1.053-.069-.039-.09-.12-.05-.183a.158.158 0 0 1 .136-.064l.008.001c.912.047 1.625-.167 2.117-.482.33-.212.558-.468.674-.716-.482.244-1.246.415-2.081.363-.898-.057-1.885-.368-2.696-1.121l-.006-.008a4.235 4.235 0 0 1-.584-.667c-.045-.063-.024-.144.043-.185a.155.155 0 0 1 .108-.018c3.042.545 3.412-.887 3.577-1.245-.004 1.05-.892 1.84-3.286 1.558.112.136.23.258.352.372l.008.007c.752.698 1.668.989 2.503 1.04.833.052 1.58-.13 2.005-.377.072-.041.135-.086.184-.13a.163.163 0 0 1 .116-.041c.08.005.144.068.138.142v.002c-.028.411-.332.887-.886 1.241-.435.28-1.026.486-1.753.529 1.78.869 3.452 1.052 4.865.775a5.654 5.654 0 0 0 2.641-1.279 4.762 4.762 0 0 0 1.448-2.243c.334-1.161.185-2.454-.601-3.652-.786-1.2-1.83-1.991-2.983-2.436-1.037-.4-2.163-.52-3.278-.41a8.566 8.566 0 0 0-3.199.98c-1.355.73-2.48 1.812-3.096 3.124-.032.068-.118.098-.193.07-.075-.029-.136-.018-.104-.086.64-1.365 1.835-2.581 3.242-3.338a8.907 8.907 0 0 1 3.319-1.015c1.161-.116 2.338.012 3.423.43 1.21.466 2.303 1.292 3.123 2.545z"/>
        </g>
    </g>
</svg>
